<mxfile host="app.diagrams.net" agent="Mozilla/5.0 (Windows NT 10.0; Win64; x64) AppleWebKit/537.36 (KHTML, like Gecko) Chrome/127.0.0.0 Safari/537.36" version="24.7.6">
  <diagram id="C5RBs43oDa-KdzZeNtuy" name="Page-1">
    <mxGraphModel dx="880" dy="468" grid="1" gridSize="10" guides="1" tooltips="1" connect="1" arrows="1" fold="1" page="1" pageScale="1" pageWidth="727" pageHeight="579" math="0" shadow="0">
      <root>
        <mxCell id="WIyWlLk6GJQsqaUBKTNV-0" />
        <mxCell id="WIyWlLk6GJQsqaUBKTNV-1" parent="WIyWlLk6GJQsqaUBKTNV-0" />
        <mxCell id="DtEAfYuD84-Tq0Z2EJlk-12" style="edgeStyle=orthogonalEdgeStyle;rounded=0;orthogonalLoop=1;jettySize=auto;html=1;entryX=0.5;entryY=0;entryDx=0;entryDy=0;" edge="1" parent="WIyWlLk6GJQsqaUBKTNV-1" source="DtEAfYuD84-Tq0Z2EJlk-7" target="DtEAfYuD84-Tq0Z2EJlk-26">
          <mxGeometry relative="1" as="geometry">
            <mxPoint x="450" y="170" as="targetPoint" />
          </mxGeometry>
        </mxCell>
        <mxCell id="DtEAfYuD84-Tq0Z2EJlk-31" style="edgeStyle=orthogonalEdgeStyle;rounded=0;orthogonalLoop=1;jettySize=auto;html=1;entryX=0.5;entryY=0;entryDx=0;entryDy=0;" edge="1" parent="WIyWlLk6GJQsqaUBKTNV-1" source="DtEAfYuD84-Tq0Z2EJlk-7" target="DtEAfYuD84-Tq0Z2EJlk-29">
          <mxGeometry relative="1" as="geometry" />
        </mxCell>
        <mxCell id="DtEAfYuD84-Tq0Z2EJlk-7" value="Problema" style="swimlane;fontStyle=0;childLayout=stackLayout;horizontal=1;startSize=20;fillColor=none;horizontalStack=0;resizeParent=1;resizeParentMax=0;resizeLast=0;collapsible=1;marginBottom=0;whiteSpace=wrap;html=1;" vertex="1" parent="WIyWlLk6GJQsqaUBKTNV-1">
          <mxGeometry x="450" y="60" width="140" height="46" as="geometry" />
        </mxCell>
        <mxCell id="DtEAfYuD84-Tq0Z2EJlk-10" value="Experimentar demais" style="text;strokeColor=none;fillColor=none;align=left;verticalAlign=top;spacingLeft=4;spacingRight=4;overflow=hidden;rotatable=0;points=[[0,0.5],[1,0.5]];portConstraint=eastwest;whiteSpace=wrap;html=1;" vertex="1" parent="DtEAfYuD84-Tq0Z2EJlk-7">
          <mxGeometry y="20" width="140" height="26" as="geometry" />
        </mxCell>
        <mxCell id="DtEAfYuD84-Tq0Z2EJlk-21" value="" style="edgeStyle=orthogonalEdgeStyle;rounded=0;orthogonalLoop=1;jettySize=auto;html=1;" edge="1" parent="WIyWlLk6GJQsqaUBKTNV-1" source="DtEAfYuD84-Tq0Z2EJlk-14" target="DtEAfYuD84-Tq0Z2EJlk-19">
          <mxGeometry relative="1" as="geometry" />
        </mxCell>
        <mxCell id="DtEAfYuD84-Tq0Z2EJlk-25" style="edgeStyle=orthogonalEdgeStyle;rounded=0;orthogonalLoop=1;jettySize=auto;html=1;entryX=0.5;entryY=0;entryDx=0;entryDy=0;" edge="1" parent="WIyWlLk6GJQsqaUBKTNV-1" source="DtEAfYuD84-Tq0Z2EJlk-14" target="DtEAfYuD84-Tq0Z2EJlk-23">
          <mxGeometry relative="1" as="geometry" />
        </mxCell>
        <mxCell id="DtEAfYuD84-Tq0Z2EJlk-14" value="Problema" style="swimlane;fontStyle=0;childLayout=stackLayout;horizontal=1;startSize=20;fillColor=none;horizontalStack=0;resizeParent=1;resizeParentMax=0;resizeLast=0;collapsible=1;marginBottom=0;whiteSpace=wrap;html=1;" vertex="1" parent="WIyWlLk6GJQsqaUBKTNV-1">
          <mxGeometry x="130" y="52.5" width="140" height="60" as="geometry" />
        </mxCell>
        <mxCell id="DtEAfYuD84-Tq0Z2EJlk-15" value="Negligenciar matéria por já &quot;saber&quot;" style="text;strokeColor=none;fillColor=none;align=left;verticalAlign=top;spacingLeft=4;spacingRight=4;overflow=hidden;rotatable=0;points=[[0,0.5],[1,0.5]];portConstraint=eastwest;whiteSpace=wrap;html=1;" vertex="1" parent="DtEAfYuD84-Tq0Z2EJlk-14">
          <mxGeometry y="20" width="140" height="40" as="geometry" />
        </mxCell>
        <mxCell id="DtEAfYuD84-Tq0Z2EJlk-19" value="Solução" style="swimlane;fontStyle=0;childLayout=stackLayout;horizontal=1;startSize=20;fillColor=none;horizontalStack=0;resizeParent=1;resizeParentMax=0;resizeLast=0;collapsible=1;marginBottom=0;whiteSpace=wrap;html=1;" vertex="1" parent="WIyWlLk6GJQsqaUBKTNV-1">
          <mxGeometry x="210" y="167.5" width="140" height="50" as="geometry" />
        </mxCell>
        <mxCell id="DtEAfYuD84-Tq0Z2EJlk-20" value="Me abrir para aprender" style="text;strokeColor=none;fillColor=none;align=left;verticalAlign=top;spacingLeft=4;spacingRight=4;overflow=hidden;rotatable=0;points=[[0,0.5],[1,0.5]];portConstraint=eastwest;whiteSpace=wrap;html=1;" vertex="1" parent="DtEAfYuD84-Tq0Z2EJlk-19">
          <mxGeometry y="20" width="140" height="30" as="geometry" />
        </mxCell>
        <mxCell id="DtEAfYuD84-Tq0Z2EJlk-23" value="Solução" style="swimlane;fontStyle=0;childLayout=stackLayout;horizontal=1;startSize=20;fillColor=none;horizontalStack=0;resizeParent=1;resizeParentMax=0;resizeLast=0;collapsible=1;marginBottom=0;whiteSpace=wrap;html=1;" vertex="1" parent="WIyWlLk6GJQsqaUBKTNV-1">
          <mxGeometry x="50" y="167.5" width="140" height="50" as="geometry" />
        </mxCell>
        <mxCell id="DtEAfYuD84-Tq0Z2EJlk-24" value="Estudar por fora" style="text;strokeColor=none;fillColor=none;align=left;verticalAlign=top;spacingLeft=4;spacingRight=4;overflow=hidden;rotatable=0;points=[[0,0.5],[1,0.5]];portConstraint=eastwest;whiteSpace=wrap;html=1;" vertex="1" parent="DtEAfYuD84-Tq0Z2EJlk-23">
          <mxGeometry y="20" width="140" height="30" as="geometry" />
        </mxCell>
        <mxCell id="DtEAfYuD84-Tq0Z2EJlk-26" value="Solução" style="swimlane;fontStyle=0;childLayout=stackLayout;horizontal=1;startSize=20;fillColor=none;horizontalStack=0;resizeParent=1;resizeParentMax=0;resizeLast=0;collapsible=1;marginBottom=0;whiteSpace=wrap;html=1;" vertex="1" parent="WIyWlLk6GJQsqaUBKTNV-1">
          <mxGeometry x="380" y="157.5" width="140" height="60" as="geometry" />
        </mxCell>
        <mxCell id="DtEAfYuD84-Tq0Z2EJlk-27" value="&lt;span style=&quot;text-align: center;&quot;&gt;Não sonhar mais alto do que o possível&lt;/span&gt;" style="text;strokeColor=none;fillColor=none;align=left;verticalAlign=top;spacingLeft=4;spacingRight=4;overflow=hidden;rotatable=0;points=[[0,0.5],[1,0.5]];portConstraint=eastwest;whiteSpace=wrap;html=1;" vertex="1" parent="DtEAfYuD84-Tq0Z2EJlk-26">
          <mxGeometry y="20" width="140" height="40" as="geometry" />
        </mxCell>
        <mxCell id="DtEAfYuD84-Tq0Z2EJlk-29" value="Solução" style="swimlane;fontStyle=0;childLayout=stackLayout;horizontal=1;startSize=20;fillColor=none;horizontalStack=0;resizeParent=1;resizeParentMax=0;resizeLast=0;collapsible=1;marginBottom=0;whiteSpace=wrap;html=1;" vertex="1" parent="WIyWlLk6GJQsqaUBKTNV-1">
          <mxGeometry x="540" y="157.5" width="140" height="60" as="geometry" />
        </mxCell>
        <mxCell id="DtEAfYuD84-Tq0Z2EJlk-30" value="&lt;span style=&quot;text-align: center;&quot;&gt;Fazer o simples de forma perfeita&amp;nbsp;&lt;/span&gt;" style="text;strokeColor=none;fillColor=none;align=left;verticalAlign=top;spacingLeft=4;spacingRight=4;overflow=hidden;rotatable=0;points=[[0,0.5],[1,0.5]];portConstraint=eastwest;whiteSpace=wrap;html=1;" vertex="1" parent="DtEAfYuD84-Tq0Z2EJlk-29">
          <mxGeometry y="20" width="140" height="40" as="geometry" />
        </mxCell>
        <mxCell id="DtEAfYuD84-Tq0Z2EJlk-32" value="" style="edgeStyle=orthogonalEdgeStyle;rounded=0;orthogonalLoop=1;jettySize=auto;html=1;" edge="1" parent="WIyWlLk6GJQsqaUBKTNV-1" source="DtEAfYuD84-Tq0Z2EJlk-34" target="DtEAfYuD84-Tq0Z2EJlk-36">
          <mxGeometry relative="1" as="geometry" />
        </mxCell>
        <mxCell id="DtEAfYuD84-Tq0Z2EJlk-33" style="edgeStyle=orthogonalEdgeStyle;rounded=0;orthogonalLoop=1;jettySize=auto;html=1;entryX=0.5;entryY=0;entryDx=0;entryDy=0;" edge="1" parent="WIyWlLk6GJQsqaUBKTNV-1" source="DtEAfYuD84-Tq0Z2EJlk-34" target="DtEAfYuD84-Tq0Z2EJlk-38">
          <mxGeometry relative="1" as="geometry" />
        </mxCell>
        <mxCell id="DtEAfYuD84-Tq0Z2EJlk-34" value="Problema" style="swimlane;fontStyle=0;childLayout=stackLayout;horizontal=1;startSize=20;fillColor=none;horizontalStack=0;resizeParent=1;resizeParentMax=0;resizeLast=0;collapsible=1;marginBottom=0;whiteSpace=wrap;html=1;" vertex="1" parent="WIyWlLk6GJQsqaUBKTNV-1">
          <mxGeometry x="195" y="332.5" width="140" height="60" as="geometry" />
        </mxCell>
        <mxCell id="DtEAfYuD84-Tq0Z2EJlk-35" value="Não usar o tempo livre para estudar" style="text;strokeColor=none;fillColor=none;align=left;verticalAlign=top;spacingLeft=4;spacingRight=4;overflow=hidden;rotatable=0;points=[[0,0.5],[1,0.5]];portConstraint=eastwest;whiteSpace=wrap;html=1;" vertex="1" parent="DtEAfYuD84-Tq0Z2EJlk-34">
          <mxGeometry y="20" width="140" height="40" as="geometry" />
        </mxCell>
        <mxCell id="DtEAfYuD84-Tq0Z2EJlk-36" value="Solução" style="swimlane;fontStyle=0;childLayout=stackLayout;horizontal=1;startSize=20;fillColor=none;horizontalStack=0;resizeParent=1;resizeParentMax=0;resizeLast=0;collapsible=1;marginBottom=0;whiteSpace=wrap;html=1;" vertex="1" parent="WIyWlLk6GJQsqaUBKTNV-1">
          <mxGeometry x="275" y="447.5" width="140" height="60" as="geometry" />
        </mxCell>
        <mxCell id="DtEAfYuD84-Tq0Z2EJlk-37" value="Estudar nos finais de semana" style="text;strokeColor=none;fillColor=none;align=left;verticalAlign=top;spacingLeft=4;spacingRight=4;overflow=hidden;rotatable=0;points=[[0,0.5],[1,0.5]];portConstraint=eastwest;whiteSpace=wrap;html=1;" vertex="1" parent="DtEAfYuD84-Tq0Z2EJlk-36">
          <mxGeometry y="20" width="140" height="40" as="geometry" />
        </mxCell>
        <mxCell id="DtEAfYuD84-Tq0Z2EJlk-38" value="Solução" style="swimlane;fontStyle=0;childLayout=stackLayout;horizontal=1;startSize=20;fillColor=none;horizontalStack=0;resizeParent=1;resizeParentMax=0;resizeLast=0;collapsible=1;marginBottom=0;whiteSpace=wrap;html=1;" vertex="1" parent="WIyWlLk6GJQsqaUBKTNV-1">
          <mxGeometry x="115" y="447.5" width="140" height="60" as="geometry" />
        </mxCell>
        <mxCell id="DtEAfYuD84-Tq0Z2EJlk-39" value="Estudar nos meios tempos&amp;nbsp;" style="text;strokeColor=none;fillColor=none;align=left;verticalAlign=top;spacingLeft=4;spacingRight=4;overflow=hidden;rotatable=0;points=[[0,0.5],[1,0.5]];portConstraint=eastwest;whiteSpace=wrap;html=1;" vertex="1" parent="DtEAfYuD84-Tq0Z2EJlk-38">
          <mxGeometry y="20" width="140" height="40" as="geometry" />
        </mxCell>
        <mxCell id="DtEAfYuD84-Tq0Z2EJlk-40" value="Faculdade" style="shape=umlFrame;whiteSpace=wrap;html=1;pointerEvents=0;width=90;height=30;" vertex="1" parent="WIyWlLk6GJQsqaUBKTNV-1">
          <mxGeometry x="30" y="10" width="660" height="250" as="geometry" />
        </mxCell>
        <mxCell id="DtEAfYuD84-Tq0Z2EJlk-41" value="Trabalho" style="shape=umlFrame;whiteSpace=wrap;html=1;pointerEvents=0;width=90;height=30;" vertex="1" parent="WIyWlLk6GJQsqaUBKTNV-1">
          <mxGeometry x="75" y="290" width="570" height="250" as="geometry" />
        </mxCell>
        <mxCell id="DtEAfYuD84-Tq0Z2EJlk-43" style="edgeStyle=orthogonalEdgeStyle;rounded=0;orthogonalLoop=1;jettySize=auto;html=1;entryX=0.5;entryY=0;entryDx=0;entryDy=0;" edge="1" parent="WIyWlLk6GJQsqaUBKTNV-1" source="DtEAfYuD84-Tq0Z2EJlk-44" target="DtEAfYuD84-Tq0Z2EJlk-48">
          <mxGeometry relative="1" as="geometry" />
        </mxCell>
        <mxCell id="DtEAfYuD84-Tq0Z2EJlk-44" value="Problema" style="swimlane;fontStyle=0;childLayout=stackLayout;horizontal=1;startSize=20;fillColor=none;horizontalStack=0;resizeParent=1;resizeParentMax=0;resizeLast=0;collapsible=1;marginBottom=0;whiteSpace=wrap;html=1;" vertex="1" parent="WIyWlLk6GJQsqaUBKTNV-1">
          <mxGeometry x="415" y="332.5" width="140" height="60" as="geometry" />
        </mxCell>
        <mxCell id="DtEAfYuD84-Tq0Z2EJlk-45" value="Não ajudar companheiros" style="text;strokeColor=none;fillColor=none;align=left;verticalAlign=top;spacingLeft=4;spacingRight=4;overflow=hidden;rotatable=0;points=[[0,0.5],[1,0.5]];portConstraint=eastwest;whiteSpace=wrap;html=1;" vertex="1" parent="DtEAfYuD84-Tq0Z2EJlk-44">
          <mxGeometry y="20" width="140" height="40" as="geometry" />
        </mxCell>
        <mxCell id="DtEAfYuD84-Tq0Z2EJlk-48" value="Solução" style="swimlane;fontStyle=0;childLayout=stackLayout;horizontal=1;startSize=20;fillColor=none;horizontalStack=0;resizeParent=1;resizeParentMax=0;resizeLast=0;collapsible=1;marginBottom=0;whiteSpace=wrap;html=1;" vertex="1" parent="WIyWlLk6GJQsqaUBKTNV-1">
          <mxGeometry x="445" y="447.5" width="140" height="50" as="geometry" />
        </mxCell>
        <mxCell id="DtEAfYuD84-Tq0Z2EJlk-49" value="Ser mais empático" style="text;strokeColor=none;fillColor=none;align=left;verticalAlign=top;spacingLeft=4;spacingRight=4;overflow=hidden;rotatable=0;points=[[0,0.5],[1,0.5]];portConstraint=eastwest;whiteSpace=wrap;html=1;" vertex="1" parent="DtEAfYuD84-Tq0Z2EJlk-48">
          <mxGeometry y="20" width="140" height="30" as="geometry" />
        </mxCell>
      </root>
    </mxGraphModel>
  </diagram>
</mxfile>
